<svg xmlns="http://www.w3.org/2000/svg" width="255" height="98" viewBox="0 0 255 98"><defs><linearGradient id="sweka" x1="195.82" x2="50.64" y1="12.52" y2="12.49" gradientUnits="userSpaceOnUse"><stop offset="0" stop-color="#5bc8f3"/><stop offset=".51" stop-color="#1187c7"/><stop offset=".62" stop-color="#1184c4"/><stop offset=".72" stop-color="#137bb9"/><stop offset=".81" stop-color="#156ca7"/><stop offset=".9" stop-color="#18578d"/><stop offset=".99" stop-color="#1c3c6d"/><stop offset="1" stop-color="#1d3767"/></linearGradient></defs><g><g><g><g><g><path d="M31.708 51.79h10.103v45.122H31.708V77.967H10.243v18.945H.14V51.79h10.103v18.246h21.465z"/></g><g><path d="M76.72 71.82h-9.847V59.41h9.847c2.943 0 5.085.485 6.406 1.474 1.32.97 1.981 2.56 1.981 4.731 0 2.133-.66 3.704-1.981 4.712-1.321 1.009-3.463 1.493-6.406 1.493zm12.998 11.712c-1.68-2.773-3.72-4.46-6.141-5.06 3.56-.718 6.321-2.23 8.282-4.538 1.96-2.308 2.94-5.158 2.94-8.57 0-4.402-1.4-7.757-4.2-10.084-2.801-2.327-6.922-3.49-12.384-3.49H56.83v45.102h10.163V79.363h5.08c1.401 0 2.582.252 3.502.737.92.504 1.72 1.3 2.38 2.405l8.062 14.407H97.24z"/></g></g><g><g><path fill="#1187c7" d="M108.79 91.852l2.1-4.014c2.281 1.88 4.622 3.219 7.022 4.014 2.4.814 5.162 1.221 8.322 1.221 3.721 0 6.602-.698 8.623-2.113 2.02-1.396 3.02-3.374 3.02-5.934 0-1.493-.48-2.695-1.44-3.645-.96-.931-2.24-1.687-3.82-2.23-1.581-.543-3.702-1.125-6.383-1.726-3.6-.814-6.541-1.668-8.862-2.56-2.3-.891-4.16-2.171-5.601-3.82-1.42-1.667-2.14-3.82-2.14-6.515 0-2.56.7-4.808 2.08-6.806 1.38-1.977 3.36-3.51 5.921-4.595 2.56-1.086 5.542-1.629 8.923-1.629 3.2 0 6.201.485 8.982 1.474 2.78.97 5.141 2.385 7.082 4.207l-2.04 4.014c-2.201-1.822-4.422-3.16-6.683-3.994-2.26-.834-4.7-1.241-7.341-1.241-3.601 0-6.422.737-8.463 2.21-2.04 1.474-3.06 3.53-3.06 6.166 0 2.25.9 3.956 2.7 5.1 1.8 1.144 4.521 2.133 8.162 2.928 4.001.93 7.142 1.803 9.423 2.58 2.28.794 4.18 1.977 5.701 3.548 1.52 1.57 2.28 3.684 2.28 6.32 0 2.56-.7 4.79-2.08 6.71-1.38 1.92-3.36 3.393-5.961 4.44-2.58 1.047-5.622 1.571-9.083 1.571-7.241-.02-13.043-1.9-17.384-5.681z"/></g><g><path fill="#1187c7" d="M170.904 93.548c-3.88 0-6.861-1.24-8.942-3.742-2.06-2.5-3.1-6.088-3.1-10.8 0-4.595 1.06-8.182 3.18-10.76 2.12-2.579 5.101-3.859 8.942-3.859 3.781 0 6.762 1.28 8.903 3.859 2.14 2.56 3.22 6.146 3.22 10.76 0 4.693-1.06 8.3-3.18 10.8-2.14 2.502-5.142 3.742-9.023 3.742zm.06 3.977c3.341 0 6.302-.776 8.883-2.288 2.58-1.532 4.56-3.685 5.961-6.477 1.38-2.792 2.08-6.05 2.08-9.773s-.7-6.98-2.08-9.773c-1.4-2.792-3.38-4.963-5.961-6.476-2.581-1.532-5.542-2.288-8.883-2.288-3.38 0-6.341.776-8.902 2.288-2.56 1.532-4.541 3.684-5.961 6.476-1.42 2.793-2.121 6.05-2.121 9.773s.7 6.98 2.12 9.773c1.42 2.792 3.401 4.964 5.962 6.477 2.54 1.531 5.521 2.288 8.902 2.288z"/></g><g><path fill="#1187c7" d="M208.653 61.366h10.763v3.607h-10.763v32.052h-4.621V64.953h-7.282v-3.606h7.282v-1.765c0-4.615 1.16-8.105 3.48-10.47 2.321-2.386 5.862-3.685 10.623-3.937l2.661-.155.38 3.684-3.48.155c-3.081.194-5.362 1.144-6.822 2.831s-2.201 4.17-2.201 7.466v2.21z"/></g><g><path fill="#1187c7" d="M254.166 93.473l-.22 3.743c-1.12.155-2.3.213-3.56.213-4.142 0-7.283-1.086-9.403-3.277-2.12-2.172-3.181-5.158-3.181-8.94V64.95h-7.282v-3.607h7.282V50.31h4.621v11.033h10.763v3.607h-10.763v19.7c0 2.987.72 5.236 2.16 6.768 1.441 1.512 3.542 2.288 6.342 2.288 1.08 0 2.18-.078 3.241-.233z"/></g></g></g><g><path fill="url(#sweka)" d="M219.778 24.188C195.423 9.1 161.282 0 126.9 0h-.8C91.718 0 57.577 9.1 33.222 24.188c-.56.357.04 1.011.68.753C59.279 14.93 93.54 9.041 126 9.041h1c32.48 0 66.742 5.888 92.097 15.9.64.258 1.241-.396.68-.753z"/></g></g></g></svg>